<?xml version="1.0"?>
<svg xmlns="http://www.w3.org/2000/svg" height="512px" viewBox="0 -47 512.0004 512" width="512px"><path d="m502.867188 389.304688-95.804688-40.746094v-152.316406c0-6.453126-4.128906-12.1875-10.253906-14.226563l-125.339844-41.800781v-125.214844c0-8.285156-6.714844-15-15-15-8.28125 0-15 6.714844-15 15v125.210938l-125.335938 41.800781c-6.125 2.042969-10.253906 7.773437-10.253906 14.230469v151.914062l-96.746094 41.148438c-7.621093 3.242187-11.175781 12.050781-7.933593 19.675781 2.429687 5.707031 7.976562 9.132812 13.8125 9.132812 1.957031 0 3.945312-.386719 5.863281-1.203125l100.15625-42.59375 130.765625 42.890625c1.519531.5 3.097656.746094 4.675781.746094s3.15625-.246094 4.671875-.746094l130.238281-42.71875 99.742188 42.421875c1.917969.816406 3.90625 1.199219 5.863281 1.199219 5.835938 0 11.382813-3.425781 13.8125-9.132813 3.242188-7.621093-.3125-16.429687-7.933593-19.671874zm-246.394532-222.472657 87.824219 29.292969-87.824219 28.808594-87.828125-28.808594zm15 84.753907 105.589844-34.636719v130.664062l-105.589844 34.636719zm-135.59375-34.636719 105.59375 34.636719v130.664062l-105.59375-34.636719zm0 0" fill="#e3373e"/></svg>
